<?xml version="1.0" encoding="UTF-8"?>
<svg id="Calque_2" data-name="Calque 2" xmlns="http://www.w3.org/2000/svg" viewBox="0 0 211.68 52.85">
  <defs>
    <style>
      .cls-1 {
        fill: #fff;
      }

      .cls-2 {
        fill: none;
        stroke: #000;
        stroke-miterlimit: 10;
        stroke-width: 2px;
      }

      .cls-3 {
        fill: #3232fc;
      }
    </style>
  </defs>
  <g id="Plan_2" data-name="Plan 2">
    <g id="logo_light_mod" data-name="logo light mod">
      <g>
        <path d="M88.06,17.67l-5.25,20.13h-5.93l-3.21-13.25-3.33,13.25h-5.94l-5.1-20.13h5.25l2.9,14.65,3.58-14.65h5.39l3.44,14.65,2.92-14.65h5.28Z"/>
        <path d="M105.52,30.97h-11.1c.08,1,.4,1.75.96,2.28.56.53,1.26.79,2.08.79,1.22,0,2.07-.52,2.55-1.55h5.22c-.27,1.05-.75,2-1.45,2.84-.7.84-1.57,1.5-2.62,1.98-1.05.48-2.23.72-3.53.72-1.57,0-2.96-.33-4.19-1-1.22-.67-2.18-1.62-2.87-2.87-.69-1.24-1.03-2.7-1.03-4.36s.34-3.12,1.02-4.36c.68-1.24,1.63-2.2,2.85-2.87,1.22-.67,2.63-1,4.21-1s2.93.32,4.13.98c1.2.65,2.14,1.58,2.82,2.78s1.02,2.61,1.02,4.21c0,.46-.03.94-.09,1.43ZM100.59,28.25c0-.84-.29-1.51-.86-2.01-.57-.5-1.29-.75-2.15-.75s-1.52.24-2.08.72c-.56.48-.91,1.16-1.05,2.03h6.14Z"/>
        <path d="M115.07,22.25c.86-.46,1.84-.69,2.95-.69,1.32,0,2.51.33,3.58,1,1.07.67,1.92,1.62,2.54,2.87.62,1.24.93,2.69.93,4.33s-.31,3.09-.93,4.35c-.62,1.25-1.47,2.22-2.54,2.9-1.07.68-2.27,1.02-3.58,1.02-1.13,0-2.11-.22-2.95-.67-.84-.45-1.5-1.05-1.98-1.79v2.24h-4.9v-21.22h4.9v7.48c.46-.74,1.12-1.35,1.98-1.81ZM119.07,26.88c-.68-.7-1.51-1.05-2.51-1.05s-1.8.35-2.48,1.06-1.02,1.67-1.02,2.9.34,2.19,1.02,2.9,1.51,1.06,2.48,1.06,1.81-.36,2.49-1.07c.69-.72,1.03-1.69,1.03-2.91s-.34-2.18-1.02-2.88Z"/>
        <path class="cls-3" d="M130.98,37.28c-1.17-.48-2.1-1.19-2.8-2.12-.7-.94-1.07-2.07-1.1-3.38h5.22c.07.74.33,1.31.77,1.71.44.39,1.01.59,1.72.59s1.3-.17,1.72-.5c.42-.34.63-.8.63-1.39,0-.5-.17-.91-.5-1.23-.33-.32-.74-.59-1.23-.8s-1.18-.45-2.08-.72c-1.3-.4-2.36-.8-3.18-1.2s-1.53-.99-2.12-1.78c-.59-.78-.89-1.81-.89-3.07,0-1.87.68-3.34,2.03-4.4s3.13-1.59,5.3-1.59,4,.53,5.36,1.59,2.08,2.54,2.18,4.43h-5.3c-.04-.65-.28-1.16-.72-1.53-.44-.37-1-.56-1.69-.56-.59,0-1.07.16-1.44.47-.36.32-.54.77-.54,1.36,0,.65.31,1.16.92,1.52.61.36,1.57.76,2.87,1.18,1.3.44,2.35.86,3.17,1.26.81.4,1.51.98,2.11,1.75.59.77.89,1.75.89,2.95s-.29,2.19-.88,3.12c-.58.94-1.43,1.68-2.54,2.24-1.11.55-2.42.83-3.93.83s-2.79-.24-3.96-.72Z"/>
        <path d="M170.45,23.43c1.17,1.2,1.76,2.88,1.76,5.02v9.35h-4.87v-8.69c0-1.03-.27-1.83-.82-2.39-.54-.56-1.3-.85-2.25-.85s-1.71.28-2.25.85c-.55.56-.82,1.36-.82,2.39v8.69h-4.87v-8.69c0-1.03-.27-1.83-.82-2.39-.55-.56-1.3-.85-2.25-.85s-1.71.28-2.25.85c-.54.56-.82,1.36-.82,2.39v8.69h-4.9v-16h4.9v2.01c.5-.67,1.15-1.2,1.95-1.59.8-.39,1.71-.59,2.72-.59,1.2,0,2.28.26,3.23.77.95.52,1.69,1.25,2.22,2.21.55-.88,1.31-1.6,2.27-2.15.95-.56,2-.83,3.12-.83,1.99,0,3.57.6,4.75,1.81Z"/>
        <path d="M176.02,19.37c-.54-.51-.82-1.13-.82-1.88s.27-1.4.82-1.91c.55-.51,1.25-.76,2.11-.76s1.53.25,2.08.76c.54.51.82,1.14.82,1.91s-.27,1.37-.82,1.88c-.55.51-1.24.76-2.08.76s-1.56-.25-2.11-.76ZM180.56,21.79v16h-4.9v-16h4.9Z"/>
        <path d="M193.03,33.64v4.16h-2.49c-1.78,0-3.16-.43-4.16-1.3-.99-.87-1.49-2.29-1.49-4.26v-6.37h-1.95v-4.07h1.95v-3.9h4.9v3.9h3.21v4.07h-3.21v6.42c0,.48.11.82.34,1.03.23.21.61.32,1.15.32h1.75Z"/>
        <path d="M210.01,23.44c1.11,1.21,1.66,2.88,1.66,5v9.35h-4.87v-8.69c0-1.07-.28-1.9-.83-2.49-.55-.59-1.3-.89-2.24-.89s-1.68.3-2.24.89c-.55.59-.83,1.42-.83,2.49v8.69h-4.9v-21.22h4.9v7.37c.5-.71,1.18-1.27,2.04-1.69.86-.42,1.82-.63,2.9-.63,1.83,0,3.31.61,4.42,1.82Z"/>
      </g>
      <rect class="cls-2" x="18.35" y="5.54" width="27.33" height="13.7" rx=".67" ry=".67" transform="translate(7.28 -11.42) rotate(22.75)"/>
      <rect class="cls-2" x="24.04" y="18.58" width="9.65" height="2.64" rx=".67" ry=".67" transform="translate(9.94 -9.62) rotate(22.75)"/>
      <rect class="cls-2" x="5.98" y="33.05" width="32.26" height="5.96" rx=".67" ry=".67" transform="translate(63.88 29.58) rotate(112.75)"/>
      <line class="cls-2" x1="21.33" y1="28.87" x2="28.3" y2="28.81"/>
      <line class="cls-2" x1="20.19" y1="32.04" x2="27.16" y2="31.98"/>
      <line class="cls-2" x1="19.26" y1="35.22" x2="26.23" y2="35.16"/>
      <line class="cls-2" x1="18.11" y1="38.39" x2="25.09" y2="38.33"/>
      <path class="cls-3" d="M30.9,28.87c5.16.04,10.31.08,15.47.13.53,0,.96.43.96.96v11.5c0,.53-.43.96-.96.96h-21.15c1.89-4.52,3.79-9.03,5.68-13.55Z"/>
      <path class="cls-1" d="M33.59,40.49v-1.9l7.19-2.69-7.19-2.71v-1.88l9.51,3.74v1.71l-9.51,3.74Z"/>
      <path class="cls-3" d="M16.43,35.64c-5.16-.04-10.31-.08-15.47-.13C.43,35.51,0,35.08,0,34.55v-11.5c0-.53.43-.96.96-.96h21.15c-1.89,4.52-3.79,9.03-5.68,13.55Z"/>
      <path class="cls-1" d="M13.74,24.12v1.9s-7.19,2.69-7.19,2.69l7.19,2.71v1.88s-9.51-3.74-9.51-3.74v-1.71s9.51-3.74,9.51-3.74Z"/>
    </g>
  </g>
</svg>