<svg xmlns="http://www.w3.org/2000/svg" xmlns:xlink="http://www.w3.org/1999/xlink" id="Calque_1" x="0px" y="0px" viewBox="0 0 859.5 309" style="enable-background:new 0 0 859.5 309;" xml:space="preserve"><style type="text/css">	.st0{fill:#F28C1E;}</style><g>	<path class="st0" d="M154.5,309C69.2,309,0,239.8,0,154.4c0-41,16.3-80.2,45.2-109.2c60.3-60.4,158.1-60.5,218.5-0.2  s60.5,158.1,0.2,218.5c-0.1,0.1-0.2,0.2-0.2,0.2C234.8,292.8,195.5,309.1,154.5,309L154.5,309z M154.5,17.5  c-75.7,0-137,61.3-137,137c0,36.4,14.4,71.2,40.2,96.9c53.5,53.5,140.3,53.5,193.8,0s53.5-140.3,0-193.8  C225.8,31.8,190.9,17.4,154.5,17.5L154.5,17.5z"></path>	<path class="st0" d="M237.2,115.6l-62.9-52.8c-11.4-9.6-28.1-9.6-39.6,0l-62.9,52.8c-11.1,9.3-16.1,26.7-16.1,38.9  c0,54.6,44.3,98.8,98.9,98.8c54.6,0,98.8-44.2,98.8-98.8C253.3,142.3,248.3,124.9,237.2,115.6z M153.6,235.8  c-20-0.5-35.9-17.2-35.3-37.2s17.2-35.9,37.2-35.3s35.9,17.2,35.3,37.2c-0.5,19.3-16,34.9-35.3,35.3H153.6z M204.9,218.3  c10.4-27.8-3.8-58.8-31.7-69.2c-27.8-10.4-58.8,3.8-69.2,31.7c-4.5,12.1-4.5,25.4,0,37.5c-19.5-15.4-30.9-38.9-30.9-63.8  c0-9.5,4.4-20.9,9.9-25.5l63-52.8c4.9-4.2,12.2-4.2,17.1,0L226,129c5.4,4.6,9.9,16,9.9,25.5C235.9,179.4,224.5,202.9,204.9,218.3  L204.9,218.3z"></path>	<path class="st0" d="M368.3,201h18.4c3.1,7.1,9.1,10.4,18.4,10.4c12.5,0,19.6-6,19.6-20.9v-9.6c-4.6,8.4-12.7,12.8-22.7,12.8  c-17.6,0-34.3-11.4-34.3-38.6v-38.8h18.4v38.8c0,14.5,7.7,21.5,19.3,21.5c11.3,0,19.3-7.3,19.3-21.5v-38.8h18.4V190  c0,26.6-16.9,37.2-38,37.2C387.4,227.2,372.7,219,368.3,201L368.3,201z"></path>	<path class="st0" d="M453.8,154.4c0-23.2,17-40.2,41.1-40.2s41.1,17,41.1,40.2s-17,40.2-41.1,40.2S453.8,177.6,453.8,154.4z   M517.3,154.4c0-13.4-9-23-22.4-23s-22.6,9.6-22.6,23s9.1,23,22.6,23S517.3,167.9,517.3,154.4z"></path>	<path class="st0" d="M544.2,156v-39.7h18.4V156c0,14.5,7.7,21.5,19.3,21.5s19.3-7,19.3-21.5v-39.7h18.4V156  c0,25.5-15.2,38.6-37.7,38.6S544.2,181.6,544.2,156z"></path>	<path class="st0" d="M633.6,82.9H652v109.7h-18.4V82.9z"></path>	<path class="st0" d="M665.5,94.2c0-7.1,5.1-12.4,12.2-12.4S690,87,690,94.2c0,6.7-5.5,12.2-12.2,12.2  C671,106.3,665.6,100.9,665.5,94.2L665.5,94.2z M668.5,116.3h18.4v76.3h-18.4V116.3z"></path>	<path class="st0" d="M695.8,116.3h20.1l21.2,59.5l21.2-59.5h19.6l-30,76.4h-22.1L695.8,116.3z"></path>	<path class="st0" d="M777.6,154.4c0-23.2,17-40.2,41.1-40.2s40.8,17,40.8,40.2v6.5h-62.6c2.5,11.1,11,17,21.8,17  c8.2,0,14.2-2.3,18.1-7.3h19.6c-5.7,14.5-19.6,24-37.7,24C794.6,194.6,777.6,177.6,777.6,154.4L777.6,154.4z M840,146.2  c-2.9-10.2-11.3-15.3-21.3-15.3c-10.3,0-18.4,5.2-21.3,15.3H840z"></path></g></svg>